HIERARCHY
ROOT hip
{
	OFFSET 0.000000 0.000000 0.000000 
	CHANNELS 6 Xposition Yposition Zposition Xrotation Zrotation Yrotation
	JOINT abdomen
	{
		OFFSET 0.000000 3.402643 0.000000 
		CHANNELS 3 Xrotation Zrotation Yrotation
		JOINT chest
		{
			OFFSET 0.000000 8.438565 -0.680529 
			CHANNELS 3 Xrotation Zrotation Yrotation
			JOINT neck
			{
				OFFSET 0.000000 10.207942 -0.272212 
				CHANNELS 3 Xrotation Zrotation Yrotation
				JOINT head
				{
					OFFSET 0.000000 3.130431 0.000000 
					CHANNELS 3 Xrotation Zrotation Yrotation
					End Site
					{
						OFFSET 0.000000 3.130435 0.000000 
					}
				}
			}
			JOINT lCollar
			{
				OFFSET 3.470700 6.669187 -0.816635 
				CHANNELS 3 Yrotation Zrotation Xrotation
				JOINT lShldr
				{
					OFFSET 3.198488 0.000000 0.000000 
					CHANNELS 3 Zrotation Yrotation Xrotation
					JOINT lForeArm
					{
						OFFSET 10.139888 0.000000 0.000000 
						CHANNELS 3 Yrotation Zrotation Xrotation
						JOINT lHand
						{
							OFFSET 8.370511 0.000000 0.000000 
							CHANNELS 3 Zrotation Yrotation Xrotation
							End Site
							{
								OFFSET 4.083176 0.000000 0.000000 
							}
						}
					}
				}
			}
			JOINT rCollar
			{
				OFFSET -3.470700 6.669187 -0.816635 
				CHANNELS 3 Yrotation Zrotation Xrotation
				JOINT rShldr
				{
					OFFSET -3.198488 0.000000 0.000000 
					CHANNELS 3 Zrotation Yrotation Xrotation
					JOINT rForeArm
					{
						OFFSET -10.139888 0.000000 0.000000 
						CHANNELS 3 Yrotation Zrotation Xrotation
						JOINT rHand
						{
							OFFSET -8.370511 0.000000 0.000000 
							CHANNELS 3 Zrotation Yrotation Xrotation
							End Site
							{
								OFFSET -4.083176 0.000000 0.000000 
							}
						}
					}
				}
			}
		}
	}
	JOINT lThigh
	{
		OFFSET 5.308129 -1.633274 1.361059 
		CHANNELS 3 Xrotation Zrotation Yrotation
		JOINT lShin
		{
			OFFSET -2.041588 -20.007561 0.000000 
			CHANNELS 3 Xrotation Zrotation Yrotation
			JOINT lFoot
			{
				OFFSET 0.000000 -19.190928 -1.224953 
				CHANNELS 3 Xrotation Yrotation Zrotation
				End Site
				{
					OFFSET 0.000000 -2.449906 4.627600 
				}
			}
		}
	}
	JOINT rThigh
	{
		OFFSET -5.308129 -1.633274 1.361059 
		CHANNELS 3 Xrotation Zrotation Yrotation
		JOINT rShin
		{
			OFFSET 2.041588 -20.007561 0.000000 
			CHANNELS 3 Xrotation Zrotation Yrotation
			JOINT rFoot
			{
				OFFSET 0.000000 -19.190928 -1.224953 
				CHANNELS 3 Xrotation Yrotation Zrotation
				End Site
				{
					OFFSET 0.000000 -2.449906 4.627600 
				}
			}
		}
	}
}
MOTION
Frames: 19
Frame Time: 0.033333
12.499344 51.197792 -13.204191 10.520445 19.897079 -52.324532 0.000000 0.000000 0.000000 19.757244 0.849536 0.752160 12.415008 1.198436 3.868179 17.145067 -0.224584 0.859368 -4.450950 -1.918273 24.997633 -67.002266 -75.642960 36.907337 -127.877014 12.669864 3.406929 24.880869 -20.499773 36.648598 5.163476 9.094098 24.992500 -17.690088 103.995560 -39.075233 123.915657 -18.400938 3.002318 -47.622974 17.945360 22.097387 -34.390057 4.716205 -1.314613 14.974450 -2.948493 -2.648554 20.065052 -0.680051 -4.014345 -23.326984 -7.547946 -5.107765 23.825394 2.587802 1.189544 7.628592 0.119000 1.798569 
12.567628 50.841484 -12.749960 11.461434 19.862040 -56.915138 0.000000 0.000000 0.000000 20.588884 -0.624963 0.624963 11.471881 -1.451612 3.956281 16.942135 -0.341795 0.205074 -2.983313 -4.395875 24.994354 -61.087032 -76.705086 29.563965 -127.100685 12.087120 3.436921 21.788845 -21.385214 38.010128 5.679517 5.294681 24.998608 -16.455315 102.343231 -40.227943 124.325317 -18.038168 3.029876 -40.050171 17.239140 22.914671 -30.513037 7.196136 -1.663133 8.173806 -2.822415 -0.276099 22.369347 -0.957180 -5.009059 -28.706390 -6.951982 -5.246341 31.271643 2.792657 5.310943 12.753065 0.424552 3.405278 
12.777688 49.594475 -12.235343 12.436202 18.774878 -61.160873 0.000000 0.000000 0.000000 21.483398 -1.367034 0.859596 10.550295 -2.949965 4.478276 16.584850 -1.367129 -0.527660 -1.353502 -6.464475 24.999683 -58.637482 -78.404083 26.776878 -125.633408 12.042029 3.418600 19.684868 -20.927387 40.744663 6.838876 3.064976 24.993694 -11.472773 100.182014 -39.029236 125.236572 -17.689079 3.064176 -26.673717 13.898544 20.821190 -29.520422 10.078005 1.069239 13.376709 -4.220917 3.650933 3.201230 0.044285 0.201425 -34.408985 -5.497576 -4.479285 41.766003 2.486966 4.981931 14.569063 0.529885 3.892222 
13.119853 48.421741 -12.114768 13.182056 18.861464 -62.045643 0.000000 0.000000 0.000000 22.303579 -1.953106 -0.254092 10.744200 -3.595382 3.854770 14.184873 -2.763667 -0.107768 -2.126442 -7.445442 24.995173 -55.032784 -79.735901 22.215254 -125.052269 11.845057 3.419464 16.254852 -20.191074 42.566364 4.999788 3.468920 24.999853 4.011070 99.230316 -24.405807 124.112976 -17.625250 3.054321 -19.619598 13.592082 13.717763 -28.476738 10.283607 1.377545 13.352360 -3.836864 6.896924 -3.813615 0.178672 -4.103508 -40.356205 -5.223922 -3.892276 51.421719 1.269317 -1.879071 9.498806 0.205758 2.438498 
13.457056 47.983521 -12.166443 14.212523 21.091084 -60.709091 0.000000 0.000000 0.000000 23.026297 -2.059993 -1.329022 10.317650 -3.844297 2.397667 13.039225 -4.433559 0.224692 -4.918922 -6.719641 24.997103 -44.910252 -80.774368 8.234350 -125.583618 10.565049 3.506297 15.052958 -19.416311 40.618614 3.318751 3.745473 24.990728 19.724794 99.331413 -9.282317 123.035706 -17.479067 3.050095 -16.233572 14.990547 11.512341 -34.186897 8.622373 0.012506 19.690363 -2.645349 7.357332 -6.781656 0.313363 -4.784741 -45.355507 -6.678710 -4.166273 54.379070 0.594712 -8.939726 1.730441 0.023560 1.244343 
13.858191 47.884918 -12.308867 15.189159 23.782812 -60.171883 0.000000 0.000000 0.000000 24.285738 -2.402048 -0.899285 9.716345 -3.308791 1.868324 12.513875 -5.556288 -0.648122 -6.601055 -3.921190 24.990616 -46.291161 -83.404427 5.721552 -125.861313 9.891649 3.561374 13.211268 -19.520470 39.067081 4.391803 5.258966 24.994690 43.188541 100.039726 11.525993 122.167770 -16.460011 3.096228 -13.346705 16.043194 10.377789 -37.832897 7.517743 -1.115288 21.813236 -1.611565 6.897563 -7.182693 0.375525 -5.542930 -49.252834 -7.685003 -3.829121 52.097847 0.556342 -10.561753 -2.614134 -0.030759 0.988417 
14.098572 47.473034 -12.395345 15.197830 26.919876 -59.052032 0.000000 0.000000 0.000000 25.065897 -2.109340 0.332166 10.220212 -2.760998 2.522250 11.779422 -7.399182 -1.684938 -6.601273 -1.863417 24.993021 -47.736732 -83.788345 7.671334 -123.197327 10.803200 3.464490 15.892172 -26.174911 43.523499 6.038625 6.977444 24.996149 56.965855 99.483910 23.941439 122.740921 -15.529615 3.173328 -11.691570 14.656227 11.258268 -39.618587 5.917632 -0.775078 20.884390 -2.343388 7.692524 -9.496963 0.462810 -5.267890 -50.825909 -8.788806 -0.529480 45.823650 -0.772403 -8.251318 -1.480350 -0.100369 6.991709 
14.167298 46.758186 -12.486995 13.641214 29.993692 -57.686092 0.000000 0.000000 0.000000 26.053160 -1.825912 0.967239 11.224388 -1.907169 4.865781 11.666921 -8.299862 -0.859036 -6.893608 -0.242201 24.991673 -60.086582 -82.635506 20.305286 -122.306244 11.435185 3.411387 17.991743 -37.353123 48.988892 8.628542 6.445206 24.995922 43.397110 98.463150 6.515511 123.628311 -15.130733 3.208317 -1.394653 15.370106 17.739376 -42.766281 2.274927 -1.437613 24.491180 -1.621884 8.414025 -12.409191 0.745217 -6.450467 -53.756973 -11.434854 3.175703 44.786980 -2.262357 1.803128 -5.282723 -0.466605 10.297850 
13.992715 45.597191 -12.732206 12.052141 31.871527 -56.015030 0.000000 0.000000 0.000000 27.088907 -1.092618 2.607878 12.707614 1.079345 5.303814 12.421951 -10.194939 0.494400 -3.132417 1.912256 24.997841 -75.765099 -84.541077 38.823002 -121.868141 12.278280 3.354672 21.601860 -36.202717 45.039101 9.739854 7.234981 24.993179 61.303844 97.936722 22.525640 128.159668 -13.209661 3.381698 -6.713368 9.784484 19.103159 -46.623215 -0.605183 -1.460807 31.136192 -1.024281 8.410168 -16.847780 1.207272 -7.967058 -55.008682 -13.095564 5.720480 47.066956 -4.206048 2.055494 -14.751678 -1.401430 10.933936 
13.760670 44.098221 -13.064802 10.939663 32.441471 -54.568722 0.000000 0.000000 0.000000 27.675085 -0.165686 3.613294 14.753270 3.071321 5.584358 13.809548 -8.876531 0.562029 -2.816663 3.666403 24.991684 -73.796021 -83.416824 39.245319 -120.800735 12.984550 3.291220 29.525436 -45.081364 44.367466 11.429942 7.806438 24.994902 66.515991 97.196487 28.850729 129.198868 -13.550776 3.375939 -6.726258 7.325167 23.846153 -50.770599 -2.031348 -1.188991 40.615833 -0.245052 8.105772 -21.708590 1.976189 -9.999949 -52.759998 -13.758982 4.964274 47.473183 -4.167395 -5.564494 -27.104195 -2.992458 12.230994 
13.631015 42.539890 -13.297292 11.342962 31.705595 -54.000515 0.000000 0.000000 0.000000 28.141598 1.400772 5.060182 15.632372 5.304325 7.640556 16.499899 -8.121804 1.617227 -4.191856 6.542777 24.993372 -77.154449 -81.910988 42.292656 -122.292328 13.103293 3.301677 32.437611 -46.517979 45.218719 13.567288 8.492503 24.996000 82.512810 94.777222 44.365921 125.792320 -14.453601 3.286534 -3.503700 15.167356 28.364296 -54.714901 -1.298741 -1.083097 49.686321 1.298812 7.510541 -26.032810 2.822865 -12.109042 -56.254383 -11.610663 4.577267 56.307030 -4.080584 -12.914579 -30.214418 -3.939401 14.506237 
13.788337 41.398865 -13.416862 12.673927 30.225290 -54.864494 0.000000 0.000000 0.000000 28.962885 2.945600 5.456551 16.814148 6.408656 9.346283 15.267030 -8.645774 3.545244 -5.665456 10.037313 24.994312 -75.514305 -82.152992 38.005432 -122.731407 12.639758 3.333127 37.704914 -48.416695 45.101208 14.673461 7.615101 24.995186 67.340500 95.480591 27.189758 125.578056 -14.313478 3.284794 -3.383372 14.622841 27.226416 -57.354630 0.097802 -2.091719 56.120152 3.701426 9.234930 -28.591810 3.824114 -14.826442 -57.794514 -8.974171 5.825794 60.884472 -4.041941 -8.024811 -33.858414 -3.851399 12.570283 
13.850389 40.379379 -13.392349 13.994948 28.118225 -55.371281 0.000000 0.000000 0.000000 29.875780 4.216771 4.279700 18.120766 6.972483 8.589902 12.922487 -9.039063 4.943233 -6.644698 8.980696 24.993460 -60.663696 -83.220200 24.049612 -121.825699 12.797903 3.322379 38.557682 -49.719456 49.083603 13.640697 6.140222 24.993967 49.755360 97.112442 8.895093 125.507553 -14.926314 3.243787 -3.474890 14.729527 24.032240 -58.980896 0.957202 -3.552434 61.557297 5.820819 11.168976 -30.566275 4.705724 -17.038225 -58.283726 -7.411593 3.822791 64.910622 -2.958107 -7.685555 -36.245106 -3.911308 11.842618 
13.792894 39.454834 -13.200866 16.067871 25.888308 -58.585033 0.000000 0.000000 0.000000 30.433043 3.796596 1.967634 18.907387 5.419477 7.721081 11.894375 -6.632908 6.066127 -7.475992 3.072352 24.993811 -18.964344 -76.093956 -17.680981 -122.278679 10.197236 3.494545 43.378723 -49.558102 49.103321 15.226104 1.601010 24.995054 28.249197 101.281906 -16.620071 126.757332 -15.183946 3.240681 -2.970811 16.165005 19.958981 -59.989838 3.095997 -6.169950 66.832230 8.280708 14.764176 -32.513226 5.970451 -20.224756 -58.784016 -5.136514 0.634932 67.676254 -1.309710 -6.747738 -37.535908 -3.785933 11.055590 
13.910731 38.877201 -13.018416 18.443636 24.264946 -61.686108 0.000000 0.000000 0.000000 30.667549 3.592590 1.458337 19.901127 4.786747 6.164262 11.800915 -5.573923 5.072320 -6.574404 3.151037 24.992048 -25.966864 -79.702782 -10.585485 -122.724266 11.518982 3.413197 33.006199 -48.390427 59.143829 13.778588 0.149099 24.991337 22.980391 102.719475 -19.625387 126.761002 -16.153057 3.189215 -8.176109 12.398705 13.596247 -60.432320 5.859714 -8.451992 70.308502 10.068885 18.106071 -33.416443 7.056341 -23.230740 -59.186012 -1.659917 -0.872711 68.858063 -0.420072 -3.845151 -38.358379 -3.206701 9.115574 
14.086449 38.372631 -12.791244 21.186417 22.872932 -65.109512 0.000000 0.000000 0.000000 30.561165 2.958791 0.655441 20.906286 3.762193 5.461148 10.850921 -5.436405 5.227861 -8.702154 2.112489 24.993763 -27.653496 -78.714172 -12.187015 -124.869957 11.001963 3.469581 27.078356 -47.232151 65.525414 15.284092 -2.925177 25.000000 15.474996 100.613464 -29.774786 126.923111 -14.695915 3.277506 -12.266148 17.181328 7.870430 -61.289070 8.945517 -10.655239 73.606133 11.495440 21.078951 -33.953461 7.959397 -25.641077 -60.122120 1.142981 -3.062984 69.637306 0.830755 -0.000059 -38.126556 -2.392161 6.838064 
14.171687 38.083321 -12.463445 22.651670 23.080708 -70.172775 0.000000 0.000000 0.000000 29.953560 0.839413 -1.836026 21.713345 -0.572607 6.377219 8.850467 -2.750400 5.621397 -6.604605 -2.318799 24.999313 -23.307190 -73.351433 -17.365046 -128.505371 9.389020 3.619095 24.098650 -45.230782 68.123070 12.756186 -6.570245 24.996914 3.793514 105.085014 -37.488667 125.744408 -17.092272 3.106692 -13.855981 19.428650 3.224374 -61.813778 11.874612 -11.336629 75.996826 11.897139 24.386927 -34.296463 8.621381 -27.455214 -61.027870 2.890912 -4.916593 69.645409 1.836535 3.595953 -37.286327 -1.735975 5.112585 
14.313021 38.109287 -12.043224 21.202200 24.139580 -73.612091 0.000000 0.000000 0.000000 29.743408 -1.092320 -2.930272 20.231367 -1.948489 6.947294 11.389465 -6.097987 7.650225 -3.960538 -4.056565 24.991844 -20.041992 -75.569481 -20.334425 -126.884987 9.414760 3.594685 23.455521 -43.911476 67.787865 11.713197 -8.608481 24.995283 -1.175129 105.244492 -43.538700 128.761108 -16.274935 3.204532 -13.631338 17.654453 -0.423324 -61.047184 11.884212 -10.026925 76.178032 11.136702 25.997173 -34.578766 8.702593 -27.419670 -61.457272 2.685127 -4.204274 69.263641 1.292603 5.490230 -36.596657 -1.641042 4.997093 
14.383267 38.365673 -11.714859 18.024019 25.515507 -75.976280 0.000000 0.000000 0.000000 29.750601 -2.768778 -3.324452 18.660007 -3.754714 5.088939 14.527738 -6.983633 5.155112 -3.284335 -3.148473 24.994261 -27.631308 -77.450623 -13.195969 -125.856384 9.813675 3.559709 23.969263 -44.493469 67.724388 12.007834 -10.160970 24.997684 0.660097 106.798897 -40.265965 130.593948 -16.915802 3.178140 -16.082224 15.654116 2.991996 -59.999382 11.005133 -7.635827 74.804260 9.601274 24.593014 -35.382637 8.274492 -25.546516 -61.987499 1.494229 -2.200511 68.617935 0.157131 5.377345 -35.726280 -1.853117 5.836328 
